<svg width="13" height="8" viewBox="0 0 13 8" fill="none" xmlns="http://www.w3.org/2000/svg">
<path d="M6.91941 5.99068L7.27296 5.63712L11.7617 1.14834C11.8383 1.07563 11.9402 1.03545 12.0459 1.03636C12.1528 1.03729 12.255 1.08016 12.3306 1.15572C12.4061 1.23129 12.449 1.33351 12.4499 1.44037C12.4508 1.54607 12.4107 1.64794 12.3379 1.72452L7.20756 6.85491C7.20754 6.85493 7.20752 6.85495 7.2075 6.85497C7.13108 6.93134 7.02745 6.97424 6.91941 6.97424C6.81136 6.97424 6.70774 6.93134 6.63131 6.85497L6.63126 6.85491M6.91941 5.99068L6.63126 6.85491M6.91941 5.99068L6.56585 5.63712M6.91941 5.99068L6.56585 5.63712M6.63126 6.85491L1.49726 1.72091C1.49724 1.7209 1.49722 1.72088 1.49721 1.72086C1.42083 1.64443 1.37793 1.54081 1.37793 1.43276C1.37793 1.32474 1.42081 1.22114 1.49715 1.14472C1.49719 1.14469 1.49722 1.14465 1.49726 1.14461M6.63126 6.85491L1.49726 1.14461M1.49726 1.14461C1.57368 1.06827 1.67728 1.02539 1.7853 1.02539C1.89335 1.02539 1.99697 1.06829 2.0734 1.14467M1.49726 1.14461L2.0734 1.14467M2.0734 1.14467C2.07342 1.14469 2.07343 1.1447 2.07345 1.14472M2.0734 1.14467L2.07345 1.14472M2.07345 1.14472L6.56585 5.63712M2.07345 1.14472L6.56585 5.63712" stroke="white"/>
</svg>
