<svg width="25" height="24" viewBox="0 0 25 24" fill="none" xmlns="http://www.w3.org/2000/svg">
<g clip-path="url(#clip0_46804_4205)">
<path d="M11.3039 0.0326157C8.15859 0.370117 5.30859 1.8748 3.30234 4.26543C1.89141 5.94355 1.01484 7.84668 0.625781 10.0779C0.536719 10.5889 0.527344 10.8373 0.527344 11.9998C0.527344 13.1623 0.536719 13.4107 0.625781 13.9217C1.06641 16.4529 2.12578 18.5482 3.87422 20.3623C5.66953 22.2279 7.93359 23.4092 10.5773 23.8732C11.0883 23.9623 11.3367 23.9717 12.4992 23.9717C13.9664 23.9717 14.407 23.9248 15.5602 23.6295C19.6945 22.5607 23.0602 19.1951 24.1289 15.0607C24.4242 13.9076 24.4711 13.467 24.4711 11.9998C24.4711 10.5326 24.4242 10.092 24.1289 8.93887C23.0602 4.80918 19.6945 1.43887 15.5602 0.370117C14.4961 0.0982418 13.9945 0.0373039 12.6867 0.023241C12.0305 0.0138664 11.407 0.0185547 11.3039 0.0326157ZM18.9305 7.29355C19.2445 7.45293 19.5586 7.77637 19.7086 8.0998C19.8164 8.3248 19.8352 8.43262 19.8352 8.76543C19.8305 9.50137 20.1164 9.16855 15.6211 13.6779C12.4477 16.8561 11.5852 17.6998 11.393 17.7936C10.9336 18.0186 10.3898 18.0232 9.92578 17.8076C9.76641 17.7326 9.17109 17.1654 7.58672 15.5904C5.74453 13.7576 5.44453 13.4389 5.31797 13.1857C4.96641 12.4732 5.17266 11.6342 5.81953 11.1467C6.27422 10.8045 6.86484 10.7201 7.41328 10.9217C7.67578 11.0201 7.79297 11.1279 9.14766 12.4732C9.94922 13.2701 10.6242 13.9217 10.6477 13.9217C10.6711 13.9217 12.1711 12.4498 13.9758 10.6451C16.5398 8.08574 17.3039 7.3498 17.482 7.26543C17.9227 7.05918 18.4898 7.06855 18.9305 7.29355Z" fill="#62C9CC"/>
</g>
<defs>
<clipPath id="clip0_46804_4205">
<rect width="24" height="24" fill="white" transform="translate(0.5)"/>
</clipPath>
</defs>
</svg>
