<svg width="154" height="62" viewBox="0 0 154 62" fill="none" xmlns="http://www.w3.org/2000/svg">
<path d="M19.7429 9.28215C9.82057 10.8234 2.22743 19.0436 1.48209 29.132C0.64358 40.0144 8.65598 49.9626 19.6963 51.8308C25.8919 52.8584 32.6466 50.6632 37.4913 46.0861C42.0099 41.8359 44.1993 36.6983 44.1993 30.5331C44.1993 17.5023 32.5068 7.32052 19.7429 9.28215ZM30.4571 13.3922C38.3298 17.1287 42.8484 25.3488 41.4043 33.4756C40.8453 36.745 38.8422 41.2287 37.2584 42.6299C36.3733 43.4239 36.1404 43.4706 35.1155 42.9101C32.7863 41.6491 32.0876 39.7341 32.0876 34.6432V30.0194L33.718 29.4122C35.6279 28.7583 37.2118 26.8901 37.2118 25.3488C37.2118 24.2279 37.1186 24.2279 32.7863 24.2279H28.3609V29.8326V35.4839L22.9106 35.3438L17.4137 35.2037L17.274 29.6924L17.1342 24.2279H12.7553C7.86405 24.2279 7.67772 24.368 9.02865 27.0302C9.7274 28.4314 11.8703 29.8326 13.2212 29.8326C13.7802 29.8326 13.9199 30.5799 13.9199 34.3163C13.9199 39.3138 13.2678 41.0419 10.6591 42.9101L9.30815 43.8909L7.81747 41.8826C4.97586 37.9593 4.41686 36.1845 4.41686 30.5331C4.37028 25.8159 4.46344 25.162 5.67462 22.7333C8.19014 17.5957 13.2212 13.3922 18.392 12.0845C21.746 11.2438 27.1031 11.851 30.4571 13.3922ZM20.9075 40.8084C20.9075 42.3963 20.8609 42.443 18.9976 42.443H17.1342L17.274 44.1712L17.4137 45.946H22.7708H28.128L28.2677 44.1712L28.4075 42.443H26.5441C24.6808 42.443 24.6342 42.3963 24.6342 40.8084V39.1737H26.8702C29.0596 39.1737 29.1994 39.2204 29.9913 41.0419C30.4571 42.1161 31.5752 43.6107 32.4602 44.358C33.9509 45.7124 33.9975 45.8058 33.2056 46.413C31.482 47.7675 27.1031 49.1219 23.8888 49.3088C20.1156 49.589 16.2957 48.7016 13.4075 46.8334L11.5907 45.7124L13.4541 44.031C14.4789 43.0969 15.5504 41.6491 15.8764 40.7617C16.3889 39.2671 16.5286 39.1737 18.6715 39.1737H20.9075V40.8084Z" fill="white"/>
<path d="M18.2514 15.541C15.8757 16.335 13.5465 17.7362 12.1024 19.2774L10.9844 20.4918H12.8477C14.0123 20.4918 15.7359 19.978 17.18 19.2307C20.6272 17.4559 24.8197 17.4092 28.4067 19.184C30.829 20.3984 34.416 20.9588 34.416 20.1181C34.416 19.511 31.1551 17.1757 28.9191 16.1949C26.1707 14.9805 20.9533 14.6536 18.2514 15.541Z" fill="white"/>
<path d="M96.3712 22.3594C96.3712 23.9007 96.2314 24.2277 95.4395 24.2277C94.7407 24.2277 94.5078 24.5546 94.5078 25.3953C94.5078 26.236 94.7407 26.5629 95.4395 26.5629C96.278 26.5629 96.3712 26.8899 96.3712 30.2994C96.3712 33.7089 96.5109 34.1759 97.5358 35.2035C98.3743 36.0442 99.1662 36.3711 100.564 36.3711C102.241 36.3711 102.427 36.2777 102.427 35.2035C102.427 34.3161 102.194 34.0358 101.356 34.0358C99.632 34.0358 99.1662 33.1484 99.1662 29.7389V26.5629H100.564C101.728 26.5629 101.961 26.3761 101.961 25.3953C101.961 24.4145 101.728 24.2277 100.564 24.2277C99.2593 24.2277 99.1662 24.1343 99.1662 22.3594C99.1662 20.5846 99.073 20.4912 97.7687 20.4912C96.4643 20.4912 96.3712 20.5846 96.3712 22.3594Z" fill="white"/>
<path d="M56.6843 24.6014C55.2868 25.3487 54.9142 25.3954 54.9142 24.8816C54.9142 24.4613 54.4017 24.2278 53.5167 24.2278H52.1191V32.8683V41.5088H53.5167H54.9142V38.1927V34.9233L55.939 35.6239C56.498 36.0442 57.8955 36.3712 59.0135 36.3712C60.6905 36.3712 61.3427 36.091 62.6005 34.8299C67.4918 29.9258 62.6005 21.5188 56.6843 24.6014ZM60.97 27.8241C62.8334 30.2061 61.203 34.0359 58.4079 34.0359C57.8489 34.0359 56.8241 33.6156 56.1253 33.0551C54.5881 31.8408 54.4017 28.945 55.8458 27.4971C57.2433 26.096 59.7123 26.2361 60.97 27.8241Z" fill="white"/>
<path d="M70.5212 24.0879C66.6082 25.1621 64.8846 30.5333 67.2604 34.223C68.6579 36.3247 72.7572 37.1187 74.8535 35.6242C75.7852 34.9703 75.8783 34.9703 75.8783 35.6242C75.8783 36.1379 76.3442 36.3714 77.2759 36.3714H78.6734V30.2997V24.228H77.2759C76.2976 24.228 75.8783 24.4615 75.8783 25.022C75.8783 25.7226 75.8318 25.7226 75.0398 25.022C74.1082 24.1346 71.9187 23.7143 70.5212 24.0879ZM74.9467 27.4974C76.3908 28.9453 76.2044 31.841 74.6672 33.0554C72.2914 34.9236 69.543 33.8026 69.0771 30.7668C68.5181 27.3573 72.5709 25.1154 74.9467 27.4974Z" fill="white"/>
<path d="M86.0317 24.6015C84.6342 25.3488 84.2615 25.3955 84.2615 24.8817C84.2615 24.4614 83.7491 24.2278 82.864 24.2278H81.4199L81.5597 30.1594L81.6994 36.1377L83.0038 36.2779L84.2615 36.418V32.9151C84.2615 28.7583 84.7739 27.217 86.3112 26.4697C87.2429 26.0494 87.7087 26.0961 88.687 26.7499C89.805 27.4972 89.8516 27.7307 89.8516 31.9342V36.3713H91.2491H92.6466V31.5139C92.6466 27.0769 92.5534 26.5164 91.6218 25.4422C90.1777 23.7608 88.1746 23.4805 86.0317 24.6015Z" fill="white"/>
<path d="M107.132 24.3678C105.036 25.1151 103.778 26.8899 103.498 29.4587C103.033 33.5688 105.455 36.3711 109.415 36.3711C112.21 36.3711 115.005 34.643 115.005 32.9149C115.005 32.3077 112.303 32.6814 111.744 33.3352C110.905 34.3628 108.203 34.2226 107.085 33.1017C105.455 31.467 105.967 31.2335 110.579 31.2335H115.005V29.5988C115.005 25.3486 111.278 22.8732 107.132 24.3678ZM111.371 26.8899C113.002 28.3845 112.443 28.8982 109.182 28.8982C105.967 28.8982 105.548 28.5713 107.085 27.03C108.203 25.9091 110.207 25.8157 111.371 26.8899Z" fill="white"/>
<path d="M129.681 24.0875C127.864 24.6013 126.699 25.7222 125.907 27.7306C124.883 30.4862 125.348 32.8215 127.352 34.8298C128.609 36.0909 129.261 36.3711 130.938 36.3711C132.056 36.3711 133.454 36.0442 134.013 35.6238C134.945 34.9699 135.038 34.9699 135.038 35.6238C135.038 36.1376 135.504 36.3711 136.435 36.3711H137.833V30.2994V24.2277H136.435C135.457 24.2277 135.038 24.4612 135.038 25.0217C135.038 25.7222 134.991 25.7222 134.199 25.0217C133.268 24.1343 131.078 23.7139 129.681 24.0875ZM134.106 27.497C135.364 28.7581 135.364 31.6538 134.106 33.0083C132.895 34.2693 130.845 34.3161 129.401 33.1484C128.004 32.0275 127.864 28.9916 129.168 27.5438C130.333 26.2827 132.848 26.236 134.106 27.497Z" fill="white"/>
<path d="M117.338 30.2994V36.3711H118.735H120.133V32.9616C120.133 28.8982 120.785 27.4036 122.835 26.7965C123.953 26.4695 124.325 26.0959 124.325 25.3019C124.325 23.9007 122.416 23.8073 121.065 25.1618L120.133 26.0959V25.1618C120.133 24.4145 119.807 24.2277 118.735 24.2277H117.338V30.2994Z" fill="white"/>
<path d="M149.252 37.1559C149.252 39.4034 147.434 41.2252 145.193 41.2252C142.952 41.2252 141.134 39.4034 141.134 37.1559C141.134 34.9084 142.952 33.0865 145.193 33.0865C147.434 33.0865 149.252 34.9084 149.252 37.1559Z" stroke="white" stroke-width="0.0695614"/>
<path d="M146.561 39.8921H146.03L145.393 38.358C145.335 38.2156 145.278 38.0947 145.223 37.9955C145.168 37.8938 145.112 37.8111 145.053 37.7475C144.997 37.6839 144.935 37.6381 144.867 37.6101C144.802 37.5796 144.728 37.5643 144.644 37.5643H144.278V39.8921H143.832V34.4199H144.968C145.135 34.4199 145.288 34.4504 145.427 34.5115C145.569 34.57 145.691 34.6603 145.794 34.7824C145.898 34.9046 145.98 35.0572 146.038 35.2404C146.096 35.421 146.126 35.6334 146.126 35.8776C146.126 36.0684 146.105 36.244 146.065 36.4042C146.026 36.562 145.969 36.7032 145.895 36.8278C145.822 36.9525 145.734 37.0593 145.629 37.1484C145.527 37.2349 145.411 37.3023 145.281 37.3506V37.3659C145.345 37.4066 145.4 37.4537 145.446 37.5071C145.494 37.558 145.539 37.619 145.581 37.6902C145.624 37.7615 145.665 37.8429 145.706 37.9345C145.749 38.0235 145.796 38.1278 145.847 38.2474L146.561 39.8921ZM144.278 35V36.9843H144.883C144.995 36.9843 145.097 36.9601 145.191 36.9118C145.287 36.8634 145.369 36.7948 145.438 36.7057C145.507 36.6141 145.561 36.5035 145.6 36.3737C145.639 36.2414 145.658 36.0939 145.658 35.9311C145.658 35.6385 145.592 35.4108 145.459 35.248C145.328 35.0826 145.138 35 144.889 35H144.278Z" fill="white"/>
</svg>
