<svg width="24" height="24" viewBox="0 0 24 24" fill="none" xmlns="http://www.w3.org/2000/svg">
<g opacity="0.7">
<path d="M15.2501 13.0001C16.2171 13.0001 17.0001 13.7841 17.0001 14.7501V19.2541C17.0001 19.7182 16.8157 20.1633 16.4875 20.4915C16.1593 20.8197 15.7142 21.0041 15.2501 21.0041H3.75009C3.28596 21.0041 2.84085 20.8197 2.51266 20.4915C2.18447 20.1633 2.00009 19.7182 2.00009 19.2541V14.7501C2.00009 13.7841 2.78409 13.0001 3.75009 13.0001H15.2501ZM21.0011 14.8961V20.2501C21.003 20.4414 20.9317 20.6263 20.8018 20.7669C20.6719 20.9074 20.4932 20.9929 20.3022 21.006C20.1113 21.019 19.9226 20.9585 19.7748 20.837C19.6269 20.7154 19.5312 20.5419 19.5071 20.3521L19.5001 20.2501V14.9071C19.9933 15.0305 20.5098 15.0267 21.0011 14.8961ZM20.2511 10.0921C20.7571 10.0921 21.2424 10.2931 21.6003 10.6509C21.9581 11.0087 22.1591 11.494 22.1591 12.0001C22.1591 12.5061 21.9581 12.9914 21.6003 13.3492C21.2424 13.7071 20.7571 13.9081 20.2511 13.9081C19.7451 13.9081 19.2598 13.7071 18.9019 13.3492C18.5441 12.9914 18.3431 12.5061 18.3431 12.0001C18.3431 11.494 18.5441 11.0087 18.9019 10.6509C19.2598 10.2931 19.7451 10.0921 20.2511 10.0921ZM15.2461 2.99707C16.2131 2.99707 16.9961 3.78107 16.9961 4.74707V9.25007C16.9961 9.7142 16.8117 10.1593 16.4835 10.4875C16.1553 10.8157 15.7102 11.0001 15.2461 11.0001H3.74609C3.28196 11.0001 2.83685 10.8157 2.50866 10.4875C2.18047 10.1593 1.99609 9.7142 1.99609 9.25007V4.74707C1.99613 4.30772 2.16142 3.88446 2.45914 3.56136C2.75686 3.23826 3.16521 3.03897 3.60309 3.00307L3.74609 2.99707H15.2461ZM20.2511 3.00007C20.4325 3.00011 20.6077 3.06589 20.7443 3.18521C20.8809 3.30454 20.9697 3.46933 20.9941 3.64907L21.0011 3.75007V9.09607C20.51 8.96595 19.9939 8.96251 19.5011 9.08607V3.75007C19.5011 3.55116 19.5801 3.36039 19.7208 3.21974C19.8614 3.07909 20.0522 3.00007 20.2511 3.00007Z" fill="white"/>
</g>
</svg>
